<?xml version="1.0" encoding="utf-8"?>
<!-- Generator: Adobe Illustrator 19.2.1, SVG Export Plug-In . SVG Version: 6.00 Build 0)  -->
<svg version="1.1" id="Layer_1" xmlns="http://www.w3.org/2000/svg" xmlns:xlink="http://www.w3.org/1999/xlink" x="0px" y="0px"
	 viewBox="0 0 200 45" style="enable-background:new 0 0 200 45;" xml:space="preserve">
<style type="text/css">
	.st0{fill:#BDE081;}
</style>
<g>
	<path class="st0" d="M3.9,40.5c0,1.1,0.5,1.6,1.6,1.6S7,41.6,7,40.5V25.6h1.6v14.9c0,1.1,0.5,1.6,1.6,1.6s1.6-0.5,1.6-1.6V15.1h0.8
		v9.1c0,0.6,0.2,1,0.6,1.2c0.4,0.3,0.8,0.3,1.2,0c0.4-0.3,0.6-0.7,0.6-1.2v-9.8c0-1-0.3-1.8-1-2.5c-0.7-0.6-1.7-0.9-3-0.9H4.7
		c-1.2,0-2.1,0.3-3,0.8c-0.7,0.5-1.1,1.3-1.1,2.5v10.4c0,0.5,0.2,0.8,0.6,1s0.8,0.2,1.2,0s0.6-0.5,0.6-1V15h0.8V40.5L3.9,40.5z"/>
	<path class="st0" d="M36,28.4l-4.7-13.1c-0.1-0.1-0.1-0.1-0.1-0.2c0-0.3,0.1-0.4,0.4-0.4c0.2,0,0.3,0.1,0.3,0.3l3.3,8.4
		c0.3,0.6,0.8,0.9,1.7,0.9c0.3,0,0.5-0.2,0.7-0.7c0.2-0.5,0.2-0.8,0.2-0.9l-3.3-8.1c-0.1-1-0.6-1.8-1.4-2.6c-0.8-0.7-1.8-1-2.9-1
		h-4.2c-1.1,0-2,0.3-3,1c-0.9,0.7-1.3,1.5-1.5,2.5l-3.1,8.2c-0.3,0.3-0.3,0.6-0.1,1c0.2,0.4,0.4,0.7,0.7,0.7c1,0,1.5-0.3,1.7-0.8
		l3.2-8.5c0.1-0.2,0.2-0.2,0.3-0.2c0.2,0,0.3,0.1,0.3,0.3v0.1l-4.6,13.2v1c0,0.1,0.1,0.3,0.4,0.5c0.3,0.3,0.4,0.4,0.5,0.4h3v10.1
		c0,0.4,0.2,0.8,0.5,1.1c0.3,0.3,0.7,0.5,1.1,0.5s0.8-0.2,1.1-0.5c0.3-0.3,0.5-0.7,0.5-1.1V30.1c0-0.1,0.1-0.1,0.4-0.1s0.6,0,0.8,0
		c0.2,0,0.4,0.1,0.4,0.1v10.4c0,0.4,0.2,0.8,0.5,1.1c0.3,0.3,0.7,0.5,1.1,0.5c0.4,0,0.8-0.2,1.1-0.5c0.3-0.3,0.5-0.7,0.5-1.1V30.4
		h3.1c0.2,0,0.3-0.1,0.5-0.4c0.2-0.3,0.3-0.4,0.3-0.5v-0.2v-0.3v-0.3L36,28.4L36,28.4z"/>
	<path class="st0" d="M4.5,6.4c0,0.9,0.3,1.7,1,2.3c0.6,0.6,1.4,1,2.3,1c0.9,0,1.7-0.3,2.3-1c0.6-0.6,1-1.4,1-2.5
		c0-0.9-0.3-1.6-1-2.3s-1.4-1-2.3-1c-0.9,0-1.7,0.3-2.3,1S4.5,5.4,4.5,6.4z"/>
	<path class="st0" d="M24.6,6.4c0,0.9,0.3,1.7,1,2.3c0.6,0.6,1.4,1,2.3,1s1.7-0.3,2.3-1c0.6-0.6,1-1.4,1-2.3S31,4.6,30.3,4
		c-0.6-0.6-1.4-1-2.3-1s-1.7,0.3-2.3,1C24.9,4.6,24.6,5.4,24.6,6.4z"/>
</g>
<g>
	<path class="st0" d="M44.3,40.5c0,1.1,0.5,1.6,1.6,1.6c1.1,0,1.6-0.5,1.6-1.6V25.6h1.6v14.9c0,1.1,0.5,1.6,1.6,1.6
		c1.1,0,1.6-0.5,1.6-1.6V15.1h0.8v9.1c0,0.6,0.2,1,0.6,1.2c0.4,0.3,0.8,0.3,1.2,0c0.4-0.3,0.6-0.7,0.6-1.2v-9.8c0-1-0.3-1.8-1-2.5
		c-0.7-0.6-1.7-0.9-3-0.9h-6.4c-1.2,0-2.1,0.3-3,0.8c-0.7,0.5-1.1,1.3-1.1,2.5v10.4c0,0.5,0.2,0.8,0.6,1c0.4,0.2,0.8,0.2,1.2,0
		s0.6-0.5,0.6-1V15h0.8L44.3,40.5L44.3,40.5z"/>
	<path class="st0" d="M76.5,28.4l-4.7-13.1c-0.1-0.1-0.1-0.1-0.1-0.2c0-0.3,0.1-0.4,0.4-0.4c0.2,0,0.3,0.1,0.3,0.3l3.3,8.4
		c0.3,0.6,0.8,0.9,1.7,0.9c0.3,0,0.5-0.2,0.7-0.7c0.2-0.5,0.2-0.8,0.2-0.9l-3.3-8.1c-0.1-1-0.6-1.8-1.4-2.6c-0.8-0.7-1.8-1-2.9-1
		h-4.2c-1.1,0-2,0.3-3,1c-0.9,0.7-1.3,1.5-1.5,2.5L59,22.7c-0.1,0.2-0.1,0.4,0.1,0.9c0.2,0.4,0.4,0.7,0.7,0.7c1,0,1.5-0.3,1.7-0.8
		l3.2-8.5c0.1-0.2,0.2-0.2,0.3-0.2c0.2,0,0.3,0.1,0.3,0.3v0.1l-4.6,13.2v1c0,0.1,0.1,0.3,0.4,0.5c0.3,0.3,0.4,0.4,0.5,0.4h3v10.1
		c0,0.4,0.2,0.8,0.5,1.1c0.3,0.3,0.7,0.5,1.1,0.5c0.4,0,0.8-0.2,1.1-0.5c0.3-0.3,0.5-0.7,0.5-1.1V30.1c0-0.1,0.1-0.1,0.4-0.1
		s0.6,0,0.8,0c0.3,0,0.4,0.1,0.4,0.1v10.4c0,0.4,0.2,0.8,0.5,1.1c0.3,0.3,0.7,0.5,1.1,0.5s0.8-0.2,1.1-0.5c0.3-0.3,0.5-0.7,0.5-1.1
		V30.4h3.1c0.2,0,0.3-0.1,0.5-0.4c0.2-0.3,0.3-0.4,0.3-0.5v-0.2v-0.3v-0.3L76.5,28.4L76.5,28.4z"/>
	<path class="st0" d="M45,6.4c0,0.9,0.3,1.7,1,2.3c0.6,0.6,1.4,1,2.3,1c0.9,0,1.7-0.3,2.3-1c0.6-0.6,1-1.4,1-2.5
		c0-0.9-0.3-1.6-1-2.3s-1.4-1-2.3-1s-1.7,0.3-2.3,1S45,5.4,45,6.4z"/>
	<path class="st0" d="M65.2,6.4c0,0.9,0.3,1.7,1,2.3c0.6,0.6,1.4,1,2.3,1s1.7-0.3,2.3-1c0.6-0.6,1-1.4,1-2.3s-0.3-1.7-1-2.3
		c-0.6-0.6-1.4-1-2.3-1s-1.7,0.3-2.3,1C65.5,4.6,65.2,5.4,65.2,6.4z"/>
</g>
<g>
	<path class="st0" d="M84.9,40.5c0,1.1,0.5,1.6,1.6,1.6s1.6-0.5,1.6-1.6V25.6h1.6v14.9c0,1.1,0.5,1.6,1.6,1.6s1.6-0.5,1.6-1.6V15.1
		h0.8v9.1c0,0.6,0.2,1,0.6,1.2c0.4,0.3,0.8,0.3,1.2,0c0.4-0.3,0.6-0.7,0.6-1.2v-9.8c0-1-0.3-1.8-1-2.5c-0.7-0.6-1.7-0.9-3-0.9h-6.4
		c-1.2,0-2.1,0.3-3,0.8c-0.7,0.5-1.1,1.3-1.1,2.5v10.4c0,0.5,0.2,0.8,0.6,1s0.8,0.2,1.2,0c0.4-0.2,0.6-0.5,0.6-1V15h0.8L84.9,40.5
		L84.9,40.5z"/>
	<path class="st0" d="M117.1,28.4l-4.7-13.1c-0.1-0.1-0.1-0.1-0.1-0.2c0-0.3,0.1-0.4,0.4-0.4c0.2,0,0.3,0.1,0.3,0.3l3.3,8.4
		c0.3,0.6,0.8,0.9,1.7,0.9c0.3,0,0.5-0.2,0.7-0.7c0.1-0.5,0.2-0.8,0.2-0.9l-3.3-8.1c-0.1-1-0.6-1.8-1.4-2.6c-0.8-0.7-1.8-1-2.9-1
		h-4.2c-1.1,0-2,0.3-3,1c-0.9,0.7-1.3,1.5-1.5,2.5l-3.1,8.2c-0.1,0.2-0.1,0.4,0.1,0.9c0.2,0.4,0.4,0.7,0.7,0.7c1,0,1.5-0.3,1.7-0.8
		l3.2-8.5c0.1-0.2,0.2-0.2,0.3-0.2c0.2,0,0.3,0.1,0.3,0.3v0.1l-4.6,13.2v1c0,0.1,0.1,0.3,0.4,0.5c0.3,0.3,0.4,0.4,0.5,0.4h3v10.1
		c0,0.4,0.2,0.8,0.5,1.1c0.3,0.3,0.7,0.5,1.1,0.5c0.4,0,0.8-0.2,1.1-0.5c0.3-0.3,0.5-0.7,0.5-1.1V30.1c0-0.1,0.1-0.1,0.4-0.1
		s0.6,0,0.8,0c0.3,0,0.4,0.1,0.4,0.1v10.4c0,0.4,0.2,0.8,0.5,1.1c0.3,0.3,0.7,0.5,1.1,0.5c0.4,0,0.8-0.2,1.1-0.5
		c0.3-0.3,0.5-0.7,0.5-1.1V30.4h3.1c0.2,0,0.3-0.1,0.5-0.4c0.2-0.3,0.3-0.4,0.3-0.5v-0.2v-0.3v-0.3L117.1,28.4L117.1,28.4z"/>
	<path class="st0" d="M85.5,6.4c0,0.9,0.3,1.7,1,2.3c0.6,0.6,1.4,1,2.3,1c0.9,0,1.7-0.3,2.3-1c0.6-0.6,1-1.4,1-2.5
		c0-0.9-0.3-1.6-1-2.3s-1.4-1-2.3-1c-0.9,0-1.7,0.3-2.3,1S85.5,5.4,85.5,6.4z"/>
	<path class="st0" d="M105.7,6.4c0,0.9,0.3,1.7,1,2.3c0.6,0.6,1.4,1,2.3,1s1.7-0.3,2.3-1c0.6-0.6,1-1.4,1-2.3s-0.3-1.7-1-2.3
		c-0.6-0.6-1.4-1-2.3-1s-1.7,0.3-2.3,1C106,4.6,105.7,5.4,105.7,6.4z"/>
</g>
<g>
	<path class="st0" d="M125.4,40.5c0,1.1,0.5,1.6,1.6,1.6c1.1,0,1.6-0.5,1.6-1.6V25.6h1.6v14.9c0,1.1,0.5,1.6,1.6,1.6
		c1.1,0,1.6-0.5,1.6-1.6V15.1h0.8v9.1c0,0.6,0.2,1,0.6,1.2c0.4,0.3,0.8,0.3,1.2,0c0.4-0.3,0.6-0.7,0.6-1.2v-9.8c0-1-0.3-1.8-1-2.5
		c-0.7-0.6-1.7-0.9-3-0.9h-6.4c-1.2,0-2.1,0.3-3,0.8c-0.7,0.5-1.1,1.3-1.1,2.5v10.4c0,0.5,0.2,0.8,0.6,1s0.8,0.2,1.2,0
		c0.4-0.2,0.6-0.5,0.6-1V15h0.8L125.4,40.5L125.4,40.5z"/>
	<path class="st0" d="M157.6,28.4l-4.7-13.1c-0.1-0.1-0.1-0.1-0.1-0.2c0-0.3,0.1-0.4,0.4-0.4c0.2,0,0.3,0.1,0.3,0.3l3.3,8.4
		c0.3,0.6,0.8,0.9,1.7,0.9c0.3,0,0.5-0.2,0.7-0.7c0.1-0.5,0.2-0.8,0.2-0.9l-3.3-8.1c-0.1-1-0.6-1.8-1.4-2.6c-0.8-0.7-1.8-1-2.9-1
		h-4.2c-1.1,0-2,0.3-3,1c-0.9,0.7-1.3,1.5-1.5,2.5l-3.1,8.2c-0.1,0.2-0.1,0.4,0.1,0.9c0.2,0.4,0.4,0.7,0.7,0.7c1,0,1.5-0.3,1.7-0.8
		l3.2-8.5c0.1-0.2,0.2-0.2,0.3-0.2c0.2,0,0.3,0.1,0.3,0.3v0.1l-4.6,13.2v1c0,0.1,0.1,0.3,0.4,0.5c0.3,0.3,0.4,0.4,0.5,0.4h3v10.1
		c0,0.4,0.2,0.8,0.5,1.1c0.3,0.3,0.7,0.5,1.1,0.5c0.4,0,0.8-0.2,1.1-0.5c0.3-0.3,0.5-0.7,0.5-1.1V30.1c0-0.1,0.1-0.1,0.4-0.1
		c0.3,0,0.6,0,0.8,0c0.2,0,0.4,0.1,0.4,0.1v10.4c0,0.4,0.2,0.8,0.5,1.1c0.3,0.3,0.7,0.5,1.1,0.5s0.8-0.2,1.1-0.5
		c0.3-0.3,0.5-0.7,0.5-1.1V30.4h3.1c0.2,0,0.3-0.1,0.5-0.4c0.2-0.3,0.3-0.4,0.3-0.5v-0.2v-0.3v-0.3L157.6,28.4L157.6,28.4z"/>
	<path class="st0" d="M126,6.4c0,0.9,0.3,1.7,1,2.3c0.6,0.6,1.4,1,2.3,1s1.7-0.3,2.3-1c0.6-0.6,1-1.4,1-2.5c0-0.9-0.3-1.6-1-2.3
		c-0.7-0.7-1.4-1-2.3-1c-0.9,0-1.7,0.3-2.3,1S126,5.4,126,6.4z"/>
	<path class="st0" d="M146.2,6.4c0,0.9,0.3,1.7,1,2.3c0.6,0.6,1.4,1,2.3,1s1.7-0.3,2.3-1c0.6-0.6,1-1.4,1-2.3s-0.3-1.7-1-2.3
		c-0.6-0.6-1.4-1-2.3-1c-0.9,0-1.7,0.3-2.3,1C146.5,4.6,146.2,5.4,146.2,6.4z"/>
</g>
<g>
	<path class="st0" d="M166,40.5c0,1.1,0.5,1.6,1.6,1.6c1.1,0,1.6-0.5,1.6-1.6V25.6h1.6v14.9c0,1.1,0.5,1.6,1.6,1.6s1.6-0.5,1.6-1.6
		V15.1h0.8v9.1c0,0.6,0.2,1,0.6,1.2c0.4,0.3,0.8,0.3,1.2,0c0.4-0.3,0.6-0.7,0.6-1.2v-9.8c0-1-0.3-1.8-1-2.5c-0.7-0.6-1.7-0.9-3-0.9
		H167c-1.2,0-2.1,0.3-3,0.8c-0.7,0.5-1.1,1.3-1.1,2.5v10.4c0,0.5,0.2,0.8,0.6,1c0.4,0.2,0.8,0.2,1.2,0s0.6-0.5,0.6-1V15h0.8
		L166,40.5L166,40.5z"/>
	<path class="st0" d="M198.2,28.4l-4.7-13.1c-0.1-0.1-0.1-0.1-0.1-0.2c0-0.3,0.1-0.4,0.4-0.4c0.2,0,0.3,0.1,0.3,0.3l3.3,8.4
		c0.3,0.6,0.8,0.9,1.7,0.9c0.3,0,0.5-0.2,0.7-0.7c0.1-0.5,0.2-0.8,0.2-0.9l-3.3-8.1c-0.1-1-0.6-1.8-1.4-2.6c-0.8-0.7-1.8-1-2.9-1
		h-4.2c-1.1,0-2,0.3-3,1c-0.9,0.7-1.3,1.5-1.5,2.5l-3.1,8.2c-0.1,0.2-0.1,0.4,0.1,0.9c0.2,0.4,0.4,0.7,0.7,0.7c1,0,1.5-0.3,1.7-0.8
		l3.2-8.5c0.1-0.2,0.2-0.2,0.3-0.2c0.2,0,0.3,0.1,0.3,0.3v0.1l-4.6,13.2v1c0,0.1,0.1,0.3,0.4,0.5c0.3,0.3,0.4,0.4,0.5,0.4h3v10.1
		c0,0.4,0.2,0.8,0.5,1.1c0.3,0.3,0.7,0.5,1.1,0.5s0.8-0.2,1.1-0.5c0.3-0.3,0.5-0.7,0.5-1.1V30.1c0-0.1,0.1-0.1,0.4-0.1
		c0.3,0,0.6,0,0.8,0c0.3,0,0.4,0.1,0.4,0.1v10.4c0,0.4,0.2,0.8,0.5,1.1c0.3,0.3,0.7,0.5,1.1,0.5c0.4,0,0.8-0.2,1.1-0.5
		c0.3-0.3,0.5-0.7,0.5-1.1V30.4h3.1c0.2,0,0.3-0.1,0.5-0.4c0.2-0.3,0.3-0.4,0.3-0.5v-0.2v-0.3v-0.3L198.2,28.4L198.2,28.4z"/>
	<path class="st0" d="M166.6,6.4c0,0.9,0.3,1.7,1,2.3c0.6,0.6,1.4,1,2.3,1c0.9,0,1.7-0.3,2.3-1c0.6-0.6,1-1.4,1-2.5
		c0-0.9-0.3-1.6-1-2.3s-1.4-1-2.3-1c-0.9,0-1.7,0.3-2.3,1C167,4.6,166.6,5.4,166.6,6.4z"/>
	<path class="st0" d="M186.7,6.4c0,0.9,0.3,1.7,1,2.3c0.6,0.6,1.4,1,2.3,1c0.9,0,1.7-0.3,2.3-1c0.6-0.6,1-1.4,1-2.3s-0.3-1.7-1-2.3
		c-0.6-0.6-1.4-1-2.3-1c-0.9,0-1.7,0.3-2.3,1C187,4.6,186.7,5.4,186.7,6.4z"/>
</g>
</svg>
