<?xml version="1.0" encoding="utf-8"?>
<!-- Generator: Adobe Illustrator 19.2.1, SVG Export Plug-In . SVG Version: 6.00 Build 0)  -->
<svg version="1.1" id="Layer_1" xmlns="http://www.w3.org/2000/svg" xmlns:xlink="http://www.w3.org/1999/xlink" x="0px" y="0px"
	 viewBox="0 0 380.6 380.6" style="enable-background:new 0 0 380.6 380.6;" xml:space="preserve">
<style type="text/css">
	.st0{fill:#FFFFFF;}
</style>
<g>
	
		<image style="overflow:visible;opacity:0.25;" width="1586" height="1586" xlink:href="67E9E56920582938.png"  transform="matrix(0.24 0 0 0.24 0 0)">
	</image>
	<g>
		<path class="st0" d="M10.2,7.4v360h360V7.4H10.2z M159,27.2c8.6-8.6,19-12.9,31.2-12.9c12.2,0,22.6,4.3,31.2,12.9
			c8.6,8.6,12.9,19,12.9,31.2c0,12.2-4.3,22.6-12.9,31.2c-8.6,8.6-19,12.9-31.2,12.9c-12.2,0-22.6-4.3-31.2-12.9
			c-8.6-8.6-12.9-19-12.9-31.2C146.2,46.2,150.5,35.8,159,27.2z M310.5,229c-3.7,3.7-8.1,5.5-13.4,5.5c-6.7,0-11.9-2.8-15.7-8.5
			l-44.6-67H228v26l48.6,80.8c1.2,2,1.8,4.1,1.8,6.5c0,3.4-1.2,6.4-3.7,8.8c-2.5,2.5-5.4,3.7-8.8,3.7H228v53.5
			c0,6-2.2,11.2-6.5,15.5c-4.3,4.3-9.5,6.5-15.5,6.5h-31.5c-6,0-11.2-2.2-15.5-6.5c-4.3-4.3-6.5-9.5-6.5-15.5v-53.5h-37.7
			c-3.4,0-6.4-1.2-8.8-3.7c-2.5-2.5-3.7-5.4-3.7-8.8c0-2.4,0.6-4.5,1.8-6.5l48.6-80.8v-26h-8.8l-44.6,67c-3.8,5.6-9,8.5-15.7,8.5
			c-5.2,0-9.7-1.8-13.4-5.5c-3.7-3.7-5.5-8.1-5.5-13.4c0-3.8,1-7.3,3.1-10.4l50.3-75.5c9.6-14,21.1-21,34.6-21H228
			c13.5,0,25,7,34.6,21l50.3,75.5c2.1,3.1,3.1,6.6,3.1,10.4C316,220.9,314.2,225.4,310.5,229z"/>
	</g>
</g>
</svg>
